# xmcd
#
# Track frame offsets: 
#        183
#        33823
#        93208
#        120985
#
# Disc length: 2460 seconds
#
# Revision: 1
# Processed by: cddbd v1.5.2PL0 Copyright (c) Steve Scherf et al.
# Submitted via: ExactAudioCopy v0.99pb5
#
DISCID=1f099a04
DTITLE=Cliford Jordan - On Stage Vol.1
DYEAR=1975
DGENRE=Jazz
TTITLE0=Pinocchio
TTITLE1=That Old Devil Moon
TTITLE2=The Maestro
TTITLE3=The Highest Mountain
EXTD=YEAR: 1975
EXTT0=
EXTT1=
EXTT2=
EXTT3=
PLAYORDER=
